<svg id="Layer_1" data-name="Layer 1" xmlns="http://www.w3.org/2000/svg" viewBox="0 0 792 612"><defs><style>.cls-1{fill:#fff;}</style></defs><rect class="cls-1" x="414.49" y="88.25" width="58.57" height="157.34"/><rect class="cls-1" x="414.49" y="401.38" width="58.57" height="122.36"/><rect class="cls-1" x="129.67" y="88.25" width="58.57" height="435.5"/><polyline class="cls-1" points="129.67 465.18 129.67 523.74 188.25 523.74 351.67 523.74 351.67 465.18 188.25 465.18"/><rect class="cls-1" x="603.89" y="88.73" width="58.57" height="122.36"/><polyline class="cls-1" points="414.49 145.95 414.49 88.73 414.49 88.25 662.47 88.25 662.47 94.78 662.47 145.95"/><polyline class="cls-1" points="603.89 398.75 603.89 466.05 603.89 523.74 662.47 523.74 662.47 523.26 662.47 466.05 662.47 356.12"/><polyline class="cls-1" points="474.26 204.77 662.47 356.12 617.85 409.97 414.49 246.43"/><polyline class="cls-1" points="662.47 466.05 662.47 523.27 662.47 523.74 414.49 523.74 414.49 517.22 414.49 466.05"/><polygon class="cls-1" points="712.52 0.14 712.52 0.63 678.98 58.71 113.02 58.71 79.48 0.63 79.48 0.14 712.52 0.14"/><line class="cls-1" x1="113.02" y1="58.71" x2="79.48" y2="0.63"/><polygon class="cls-1" points="79.48 611.86 79.48 611.38 113.02 553.29 678.98 553.29 712.52 611.38 712.52 611.86 79.48 611.86"/></svg>